# xmcd
#
# Track frame offsets:
#	150
#	9658
#	23510
#	33266
#	42830
#	52193
#	59243
#	69393
#	80455
#	89207
#	99288
#	112817
#	120692
#	131252
#
# Disc length: 1887 seconds
# Revision: 2
# Processed by: cddbd v1.5.2PL0 Copyright (c) Steve Scherf et al.
# Submitted via: dBpowerAMP V12.0
#
DISCID=b5075d0e
DTITLE=Lonesome Pine Fiddlers - Bluegrass Collection
DYEAR=2009
DGENRE=Country
TTITLE0=I'm All Alone
TTITLE1=Lonesome Pine
TTITLE2=Two Timin' Baby
TTITLE3=Lost in This World
TTITLE4=Pretty Little Indian
TTITLE5=Two Kinds of Blues
TTITLE6=Eatin' Out of Your Hand
TTITLE7=Why Do You Treat Me the Way You Do
TTITLE8=Lonesome Pine Ramble
TTITLE9=What Can I Tell My Heart
TTITLE10=Great Speckled Bird
TTITLE11=Kentucky Hill Special
TTITLE12=He Showed Me the Way
TTITLE13=He Won't Accept Excuses
EXTD=
EXTT0=
EXTT1=
EXTT2=
EXTT3=
EXTT4=
EXTT5=
EXTT6=
EXTT7=
EXTT8=
EXTT9=
EXTT10=
EXTT11=
EXTT12=
EXTT13=
PLAYORDER=
